<?xml version="1.0" encoding="UTF-8" standalone="no"?>
<svg
   version="1.0"
   width="320pt"
   height="320pt"
   viewBox="0 0 320 320"
   preserveAspectRatio="xMidYMid"
   id="svg41"
   xmlns="http://www.w3.org/2000/svg"
   xmlns:svg="http://www.w3.org/2000/svg">
  <defs
     id="defs41" />
  <ellipse
     style="display:inline;fill:#313133;fill-opacity:1;stroke:none;stroke-width:0.758;stroke-dasharray:none;stroke-opacity:1"
     id="path42"
     cx="160"
     cy="160"
     rx="151.0428"
     ry="151.21844" />
  <path
     id="path1"
     style="display:inline;fill:#ffffff;fill-opacity:1;stroke:none;stroke-width:0.1"
     d="m 115.01943,25.6899 c -8.7,0 -13.30039,5.1999 -16.400396,18.3999 l -1.100098,4.8999 -16.100097,-0.70019 c -8.8,-0.4 -17.099512,-0.79941 -18.499512,-0.89941 -3.6,-0.3 -3.899902,2.99931 -0.399902,4.29931 1.4,0.6 9.6,1.30069 18,1.70069 10.1,0.4 15.399902,0.99921 15.399902,1.69921 0,0.6 -2.000391,9.80049 -4.400391,20.50049 -4.8,21.2 -4.799707,22.89961 0.300293,25.59961 2.5,1.2 7.800194,1.5 32.200201,1.5 h 29.10058 l -0.40136,3.20069 c -0.3,1.8 -2.79864,14.19912 -5.59864,27.59912 -2.9,13.4 -5.20019,25.40117 -5.20019,26.70117 0,2.3 0.1998,2.29892 12.7998,2.89892 28.3,1.4 39.29932,2.3003 40.29932,3.3003 0.8,0.8 0.80039,3.10049 -0.0996,8.50049 -1.8,10.6 -2.0999,10.7999 -6.3999,4.8999 -2.1,-2.8 -3.99971,-5.10059 -4.19971,-5.10059 -0.3,0 -1.90019,0.70108 -3.70019,1.60108 -2.8,1.5 -4.60049,1.5999 -17.50049,0.3999 -13.6,-1.2 -14.49922,-1.20088 -16.69922,0.59912 -12.3,10.1 -14.00088,11.29971 -14.40088,10.19971 -0.2,-0.7 0.0998,-1.39961 0.7998,-1.59961 2.4,-0.8 0.89991,-3.2001 -2.60009,-4.1001 -5.1,-1.4 -16.99883,-1.29971 -21.29883,0.30029 -2.9,1 -3.9,0.9001 -6,-0.3999 -2.9,-1.8 -15.4002,-2.00068 -18.7002,-0.20068 -1.3,0.7 -2.400781,2.60097 -2.800781,5.00097 -0.5,3.2 -1.200098,3.99912 -4.100098,5.09912 l -3.399902,1.20118 0.101074,11.6997 c 0.1,23.20001 1.598926,52.19971 2.898926,53.69971 0.7,0.8 3.700586,2.20068 6.600586,3.20068 5.3,1.6 5.50039,1.89893 8.90039,8.89893 8.600005,17.9 27.899905,29.1 43.899905,25.5 5.4,-1.2 8.3002,-2.79971 26.2002,-14.69971 l 8.09912,-5.39941 12.90088,3 c 19,4.3 35.89912,6.99883 39.59912,6.29883 4.4,-0.8 7.79961,-2.59903 10.59961,-5.49903 2.1,-2.3 2.30058,-3.80068 3.60058,-28.70068 0.8,-16.2 1.80049,-26.6999 2.50049,-27.3999 1.6,-1.6 1.49932,-19.79903 -0.20068,-21.99903 -0.7,-1 -3.0002,-2.40107 -5.2002,-3.10107 -3.5,-1.2 -4.09961,-1.89912 -4.59961,-5.09912 -0.8,-4.5 -1.69931,-5.2 -8.79931,-6 -6.8,-0.7 -15.10079,0.69892 -16.30079,2.89892 -0.9,1.6 -6.2997,2.20127 -7.1997,0.80127 -0.2,-0.4 0.5,-5.60117 1.5,-11.70117 3.4,-18.5 2.8001,-18.90019 -28.8999,-20.20019 -12.2,-0.6 -22.39961,-1.19893 -22.59961,-1.39893 -0.3,-0.2 1.79961,-11.00039 4.59961,-23.90039 2.8,-12.9 5.10019,-25.99951 5.20019,-28.99951 0.1,-5.3 0,-5.50108 -2.90039,-6.10108 -1.6,-0.4 -15.6001,-0.6998 -31.1001,-0.7998 -20.7,-0.1 -28.400098,-0.39893 -29.600098,-1.39893 -1.7,-1.2 -1.399901,-3.10068 7.100098,-39.20068 0.6,-2.5 1.39961,-3.19941 4.59961,-3.89941 10.3,-2.3 12.10108,-3 15.10108,-6 5.9,-5.9 6.3997,-13.80039 1.1997,-19.40039 -1.6,-1.6 -3.30019,-2.2002 -6.70019,-2.2002 z m 0.0893,4.16455 c 1.06302,0.01702 1.86436,0.78916 3.51123,2.43604 2,2 2.39991,3.0997 1.89991,5.6997 -1.1,5.6 -5.20088,8.5001 -14.40088,10.1001 -3.3,0.6 -3.39971,0.60029 -2.69971,-2.69971 1.8,-8 4,-12.20136 7.5,-13.90136 2.10938,-1.07813 3.2515,-1.64978 4.18945,-1.63477 z m 97.24512,15.80566 c -2.66797,0.0254 -5.47266,1.01758 -7.53516,2.83008 -4.4,3.9 -4.09892,7.59961 1.60108,19.59961 5.2,10.9 5.2998,14.10069 0.7998,15.20069 -3.5,0.9 -5.69961,-0.7 -6.09961,-4.5 -0.4,-3.6 -3.60068,-4.4001 -4.70068,-1.1001 -1.7,5.3 2.99961,10.99951 9.09961,10.99951 9.3,0 12.80078,-9.19941 7.30078,-18.89941 -3.5,-6 -6.90029,-15 -6.30029,-16.5 0.7,-1.7 4.0999,-3.10118 6.3999,-2.70118 2,0.4 3,2.10127 3,5.30127 0,2.1 0.49951,2.79932 1.99951,2.79932 4.1,0 3.2999,-9.7 -1.1001,-12 -1.3125,-0.7125 -2.86406,-1.04502 -4.46484,-1.02979 z m -19.92187,1.07959 c -0.8625,-0.025 -1.7127,0.34991 -2.0127,1.14991 -1,3 -7.5,36.20088 -7.5,38.40088 0,3.2 3.7,3.39961 4.5,0.09961 2.9,-12.6 7.5001,-37.30088 7.1001,-38.40088 -0.35,-0.8 -1.2249,-1.22452 -2.0874,-1.24952 z m -13.14991,1.03711 c -0.8125,0.0625 -1.66211,0.6128 -2.16211,1.6128 -0.5,1 -2.20127,6.4 -3.80127,12 l -2.89892,10.30078 -1.00049,-11.2002 c -0.8,-9.3 -1.29971,-11.30009 -2.69971,-11.60009 -1.4,-0.3 -2.30029,1.70048 -4.80029,10.00048 -4.7,15.4 -4.59941,15.39932 -5.39941,2.79932 -0.4,-6.3 -1,-11.80029 -1.5,-12.30029 -0.4,-0.4 -1.50088,-0.49961 -2.40088,-0.09961 -1.5,0.5 -1.6001,1.89931 -1.1001,11.79931 1.6,27.1 1.70049,28.10039 4.00049,28.40039 1.8,0.3 2.5001,-1.09951 5.6001,-10.99951 l 3.59912,-11.2998 0.10107,8.6001 c 0.1,11.5 0.89922,14.89892 3.19922,14.89892 1.4,0 2.30049,-1.69931 4.00049,-7.29931 7.9,-26.3 9.69922,-33.10079 9.19922,-34.30079 -0.35,-0.95 -1.12403,-1.375 -1.93653,-1.3125 z m -40.06347,4.01368 c -3.8,0.1 -8.39932,0.3998 -10.29932,0.7998 l -3.3999,0.59912 -4.30078,17.50049 c -2.3,9.6 -4.09903,18.59951 -3.99903,19.99951 0.2,2.4 0.29922,2.40059 9.19922,2.10059 4.9,-0.1 9.3002,-0.49981 9.7002,-0.79981 0.5,-0.2 0.7998,-1.30088 0.7998,-2.40088 0,-1.7 -0.69892,-1.8999 -7.39892,-1.8999 h -7.40039 l 1.00048,-3.99902 0.99903,-3.90088 6.20068,-0.30029 c 5.3,-0.3 6.09961,-0.49981 6.09961,-2.29981 0,-1.7 -0.8002,-1.9998 -5.2002,-2.2998 -6.1,-0.4 -5.99951,-0.09922 -3.49951,-10.69922 l 1.69922,-7.00049 7.00049,-0.49951 c 7.6,-0.6 9.49951,-1.30059 9.49951,-3.60059 0,-1.1 -1.50019,-1.39931 -6.70019,-1.29931 z M 263.01992,98.79 c -4.9,0.4 -27.60127,2.69931 -27.80127,2.79931 -0.2,0 -0.29883,1.1002 -0.29883,2.2002 0,2 0.4001,2.10068 7.1001,1.70068 6.6,-0.4 6.99951,-0.30078 6.49951,1.69922 -2.7,11.9 -7.69942,45.80108 -6.89942,46.60108 2.8,2.8 3.89922,-0.40039 7.69922,-22.40039 2,-12.2 4.00078,-23.19991 4.30078,-24.39991 0.4,-1.8 1.39991,-2.20078 6.39991,-2.80078 6.3,-0.7 7.79892,-1.69902 5.89892,-3.99902 -0.7,-0.8 -1.99892,-1.40039 -2.89892,-1.40039 z m -43.30079,3 c -0.2,0.1 -1.3997,0.40058 -2.6997,0.60058 -6.4,1.2 -9.19951,5.19873 -10.99951,15.69873 -0.7,3.9 -1.90118,9.50098 -2.70118,12.50098 -0.8,3 -1.39892,8.19941 -1.39892,11.39941 0,5.1 0.39892,6.20079 2.89892,8.80079 3.4,3.3 6.9002,3.6997 11.2002,1.1997 4.3,-2.5 6.30049,-7.8 10.00049,-25.5 3.7,-18 3.30029,-20.90088 -2.69971,-23.40088 -1.9,-0.8 -3.50059,-1.29931 -3.60059,-1.29931 z m -32.8623,2.92529 c -1.0125,0.025 -1.93799,0.32451 -1.93799,0.87451 0,0.4 -1.79902,10.4001 -3.99902,22.1001 -2.2,11.7 -4.00049,22.3001 -4.00049,23.6001 0,2.7 1.70068,4.1001 3.20068,2.6001 1.3,-1.3 9.99922,-47.09991 9.19922,-48.39991 -0.35,-0.55 -1.4499,-0.7999 -2.4624,-0.7749 z m 32.53711,2.12256 c 1.02986,-0.0413 1.88848,0.35244 3.12598,1.25244 1.9,1.4 1.8,1.69932 -1.5,17.79932 -3.5,17.3 -5.20039,21.5 -8.90039,22.5 -5.9,1.5 -6.5002,-4.79922 -2.2002,-25.69922 2.5,-12.1 3.19951,-13.7 6.49951,-15 1.26875,-0.525 2.1741,-0.82041 2.9751,-0.85254 z m -111.82471,1.08984 c -2.05,-0.0125 -5.8499,0.31241 -13.149903,0.96241 -5.4,0.4 -10.300293,1.19921 -10.800293,1.69921 -1,1 -12.700195,49.60098 -12.700195,53.00098 v 2.39941 l 12.799804,-0.70019 c 7,-0.4 13.101075,-1.09961 13.601075,-1.59961 0.5,-0.5 0.599218,-1.60049 0.199218,-2.50049 -0.5,-1.4 -1.900195,-1.49941 -11.200195,-0.89941 l -10.599609,0.70019 0.700195,-2.40088 c 0.5,-1.3 1.299902,-4.69892 1.899902,-7.39892 l 1.100098,-5.00098 8.500488,-0.29883 c 8.5,-0.3 10.899317,-1.40088 8.799317,-3.90088 -0.7,-0.9 -3.700489,-1.29931 -8.500489,-1.29931 -6.6,0 -7.399414,-0.20029 -6.899414,-1.80029 0.3,-0.9 1.69961,-6.70088 3.09961,-12.90088 3,-12.8 1.600002,-11.69942 16.500001,-12.89942 8.4,-0.6 10.30029,-1.5001 9.30029,-4.1001 -0.3,-0.7 -0.5999,-1.04951 -2.6499,-1.06201 z m 15.84961,0.76172 c -0.775,0 -1.5499,0.30088 -1.8999,0.90088 -0.9,1.4 -11.6001,48.9999 -11.6001,51.3999 0,1.9 0.40117,1.99932 10.20117,1.29932 10.6,-0.7 12.49942,-1.3001 11.39942,-4.1001 -0.5,-1.4 -1.70049,-1.49902 -8.50049,-0.99902 l -7.80029,0.70019 5.30127,-23.70117 c 3,-13 5.09882,-24.09912 4.79882,-24.59912 -0.35,-0.6 -1.1249,-0.90088 -1.8999,-0.90088 z m 41.10059,57.10108 c -2.3,0.1 -11.6001,5.39912 -11.6001,6.59912 0,1.9 5.2002,1.60049 9.7002,-0.49951 4.6,-2.1 5.50009,-3.19991 4.10009,-4.89991 -0.6,-0.7 -1.60019,-1.2997 -2.20019,-1.1997 z m 14.96191,3.2373 c -1.7875,0.0875 -4.21172,0.81211 -6.76172,2.16211 -5.4,2.8 -5.9998,4.20059 -2.2998,5.10059 3.1,0.8 12,-3.4001 12,-5.6001 0,-1.2 -1.15098,-1.7501 -2.93848,-1.6626 z m 4.03858,8.7627 c 0.1,-0.1 1.99931,2.39941 4.29931,5.39941 5.6,7.4 5.30039,9.80049 -1.59961,14.50049 -6.7,4.5 -7.20019,7.29951 -0.70019,3.49951 2.5,-1.5 4.6999,-2.4998 4.8999,-2.2998 0.2,0.2 1e-4,1.8998 -0.3999,3.7998 -0.6,3.2 -1.00059,3.49961 -3.60059,3.09961 -4.7,-0.5 -5.89941,-1.49981 -9.89941,-8.29981 l -3.7002,-6.30029 2.69971,-5.69971 c 1.9,-3.9 3.5998,-6.10019 5.2998,-6.70019 1.4,-0.5 2.70118,-0.99902 2.70118,-0.99902 z m -32.28809,0.26953 c 0.11582,-0.005 0.21211,0.004 0.28711,0.0293 0.6,0.2 5.80049,0.7001 11.50049,1.1001 5.7,0.4 10.70058,0.90117 11.10058,1.20117 0.6,0.3 -1.40117,5.49864 -2.70117,7.09864 -0.1,0.1 -1.5,-0.39971 -3,-1.19971 -1.5,-0.8 -6.5998,-1.8002 -11.2998,-2.2002 -4.7,-0.3 -9.69951,-0.99931 -10.99951,-1.29931 l -2.50049,-0.7002 3.3999,-2.20019 c 1.6625,-1.05 3.40215,-1.79405 4.21289,-1.82959 z m -61.785648,6.32812 c 5.250321,-0.0206 12.500978,0.68233 12.172858,1.60108 -0.5,1.7 -5.799225,2.80019 -10.699225,2.20019 -5.1,-0.7 -7.500195,-1.79961 -6.700195,-3.09961 0.275,-0.48125 2.476395,-0.69085 5.226562,-0.70166 z m 52.272948,0.70166 12.79981,1.40039 c 9.7,1 13.10098,1.7 14.00098,3 3.7,5 10.89931,17.9001 14.79931,26.6001 l 4.5,9.89942 -3,2.90039 c -3.9,3.89999 -4.00029,9.29921 -0.30029,13.69921 3.1,3.7 2.8001,6.40088 -1.8999,15.90088 -2.7,5.7 -6.00039,9.99932 -4.40039,5.79932 0.4,-0.9 1.00078,-5.19951 1.30078,-9.49951 1.7,-20.2 -7.5002,-35.90079 -26.2002,-44.80078 -6.5,-3.1 -8.79951,-3.69864 -16.99951,-4.09864 -9.1,-0.5 -9.39971,-0.60009 -8.69971,-2.60009 0.3,-1.1 0.89971,-3.80079 1.19971,-5.80079 0.5,-3.2 1.49981,-4.39912 6.79981,-8.09912 z m -34.30517,1.08985 c 0.0609,-0.008 0.13008,0.0609 0.20508,0.21093 0.2,0.7 0.2,2.1 0,3 -0.3,1 -0.49951,0.39883 -0.49951,-1.20117 0,-1.275 0.11162,-1.98633 0.29443,-2.00976 z m 21.0498,0.60937 c 0.37011,-0.0204 0.45557,0.69463 0.45557,2.40088 0,1.4 -0.40049,2.50049 -1.00049,2.50049 -1.1,0 -1.39883,-3.30078 -0.29883,-4.30078 0.37813,-0.37813 0.64989,-0.58988 0.84375,-0.60059 z m -4.75927,0.3252 c 0.0684,0.001 0.14033,0.0262 0.21533,0.0762 0.6,0.3 0.99902,1.89912 0.99902,3.59912 0,1.6 -0.39902,2.90039 -0.99902,2.90039 -0.5,0 -1.00049,-1.60059 -1.00049,-3.60059 0,-1.8375 0.30664,-2.98469 0.78516,-2.97509 z m -12.29004,0.0645 c 0.0609,-0.008 0.13008,0.0609 0.20508,0.21094 0.2,0.7 0.2,2.1 0,3 -0.3,1 -0.49952,0.40029 -0.49952,-1.19971 0,-1.275 0.11162,-1.98779 0.29444,-2.01123 z m 3.50537,0.51123 c 0.6,0 0.99902,1.10049 0.99902,2.50049 0,1.4 -0.39902,2.49902 -0.99902,2.49902 -0.5,0 -1.00049,-1.09902 -1.00049,-2.49902 0,-1.4 0.50049,-2.50049 1.00049,-2.50049 z m 3.99902,0 c 0.6,0 1.00049,1.3 1.00049,3 0,1.6 -0.40049,3 -1.00049,3 -0.5,0 -0.99902,-1.4 -0.99902,-3 0,-1.7 0.49902,-3 0.99902,-3 z m -27.354493,2.4624 c 5.374951,-0.008 11.355473,0.40694 11.355473,1.13819 0,1.5 -3.4002,2.39941 -9.7002,2.39941 -5.4,0 -10.700488,-1.49971 -10.000488,-2.69971 0.35,-0.56875 4.164697,-0.83139 8.345215,-0.83789 z m 123.673833,1.48389 c 5.57116,-0.006 11.70644,0.46641 11.48144,1.25391 -0.6,1.8 -7.60009,2.9998 -13.10009,2.2998 -5.9,-0.7 -7.9001,-1.4001 -7.1001,-2.6001 0.39375,-0.65625 4.38562,-0.94931 8.71875,-0.95361 z m -16.66846,1.86182 c 2.07244,-0.0244 4.66904,1.8913 4.05029,4.0913 -0.8,3.1 2.49893,4.90118 10.39893,5.70118 7,0.7 16.8999,-0.90079 16.8999,-2.80079 0,-1.2 4.9999,-0.20029 6.3999,1.19971 1.4,1.4 -2.09902,4.80049 -5.49902,5.50049 l -2.90039,0.7002 v 10.40039 c 0,11.09999 0.4002,11.89882 5.2002,9.29882 1.1,-0.60002 2.19941,-0.79912 2.39941,-0.59912 0.3,0.3 0.001,9.59971 -0.59912,20.69971 -0.8,14.6 -1.50049,20.70059 -2.50049,21.60059 -2.8,2.9 -11.3999,6.3999 -15.3999,6.3999 -4,0 -19.9999,-2.0001 -33.3999,-4.1001 l -6.7002,-1.1001 4.00049,-4.5 c 2.5,-2.9 4.90019,-7.1999 6.70019,-12.3999 2.2,-6.2 3.39942,-8.10039 5.39942,-8.90039 2.5,-1.1 3.8998,-3.09932 5.2998,-7.29932 0.9,-2.9 -1.99941,-8.40117 -5.39941,-10.20117 -4.3,-2.2 -3.40039,-2.7 3.09961,-1.5 3,0.6 11.09922,1.30069 18.19922,1.70069 l 12.70019,0.59912 v -6.49951 c 0,-3.60001 -0.29912,-7.79991 -0.59912,-9.39991 l -0.60059,-2.90039 -9.59912,-0.29883 c -5.3,-0.1 -12.20068,-0.60048 -15.20068,-1.00048 l -5.50049,-0.7002 0.20069,-5.50049 c 0.2,-3 0.4998,-6.0998 0.7998,-6.7998 0.375,-0.96875 1.20837,-1.3805 2.15039,-1.3916 z m -91.86182,0.59179 c 0.44844,-0.006 0.86143,0.0246 1.21143,0.0996 9.2,1.8 14.69971,2.6002 16.19971,2.2002 1.3,-0.4 1.80029,0.10039 1.80029,1.40039 0,1.5 -0.5002,1.8 -2.2002,1.5 -1.3,-0.3 -7.19931,-1.10069 -13.29931,-1.70069 -10.4,-1.2 -10.800979,-1.30009 -8.00098,-2.60009 1.275,-0.525 2.94375,-0.88067 4.28906,-0.89942 z m 109.71094,3.09961 c 7.9,0 11.50049,0.4001 11.50049,1.1001 0,1.7 -3.50049,2.40088 -11.50049,2.40088 -8,0 -11.49902,-0.70088 -11.49902,-2.40088 0,-0.7 3.59902,-1.1001 11.49902,-1.1001 z m 22.00049,9 0.30029,2.50049 c 0.2,1.3 0.0997,4.80029 -0.30029,7.80029 -0.6,4.60001 -1.0998,5.59932 -3.7998,7.29932 -1.8,1 -3.50088,1.8999 -3.90088,1.8999 -0.5,0 -0.79981,-3.49882 -0.79981,-7.79883 l 0.10108,-7.70068 4.1997,-1.99951 z m -104.50049,1.60108 c 1,0 0.50108,0.89902 -1.39892,2.49902 -3.2,2.8 -4.90098,2.40049 -2.00098,-0.49951 1,-1.1 2.5999,-1.99951 3.3999,-1.99951 z m -7.07519,0.87451 c 0.75,0 0.77519,0.67441 -0.42481,2.02441 -1,1.1 -2.79941,2.00098 -3.89941,2.00098 -2,0 -2.0001,-0.10098 0.3999,-2.00098 1.7,-1.35 3.17432,-2.02441 3.92432,-2.02441 z m 13.875,0.0249 h 2.50048 l -2.60009,1.99951 c -1.4,1.1 -3.29932,2.00098 -4.29932,2.00098 -1.6,0 -1.60039,-0.10098 0.0996,-2.00098 1,-1.1 2.89932,-1.99951 4.29932,-1.99951 z m -63.799811,0.89941 5.800781,0.60059 c 28.6,3.1 30.09951,3.2001 33.49951,1.1001 5.9,-3.6 1.29971,0.0992 -7.80029,6.19922 -4.9,3.29999 -10.39922,7.50029 -12.19922,9.30029 -4.5,4.8 -7.500586,12.2002 -8.100586,20.2002 -0.4,6.3 -0.600098,6.6996 -2.600098,6.0996 -6.7,-2 -7.099218,-2.49892 -7.699218,-10.39892 -0.4,-4.1 -0.699805,-13.29981 -0.799805,-20.29981 z m 70.207031,0.18018 c 0.51563,0.01 0.91846,0.29531 1.29346,0.82031 0.7,1.3 -3.4,4.1001 -6,4.1001 -1.8,-0.1 -1.7002,-0.30049 0.7998,-2.50049 1.875,-1.6875 3.04737,-2.43652 3.90674,-2.41992 z m 7.0166,2.85937 c 0.47659,0.008 0.77637,0.15206 0.77637,0.46143 0,0.3 -1.3,1.4001 -3,2.6001 -3.6,2.6 -5.99931,1.69951 -2.79931,-1.00049 1.4375,-1.22187 3.805,-2.08223 5.02294,-2.06104 z m -25.92919,2.25147 c 16.56897,0.002 31.72793,10.49326 36.70605,26.60889 2.8,9.1 3.49951,16.60117 1.99951,23.70117 -1.9,9.1 -3.7,12.79883 -7.5,15.29883 -1.9,1.2 -3.49951,2.00029 -3.49951,1.80029 0,-0.2 0.8999,-2.29922 1.8999,-4.69922 10.5,-24.1 -9.5999,-57.20078 -36.3999,-59.80078 l -7.00049,-0.7002 4.5,-1.10009 c 3.10938,-0.75 6.22611,-1.10889 9.29444,-1.10889 z m 30.47168,0.84082 c 0.74179,-0.001 1.23486,0.24404 1.23486,0.76904 0,0.4 -1.4,1.59903 -3,2.49903 -3.9,2.3 -6.20039,1.10107 -2.90039,-1.39893 1.5,-1.1875 3.4292,-1.86814 4.66553,-1.86914 z m 4.04736,3.65625 c 0.7875,0.0125 1.18652,0.41289 1.18652,1.21289 0,0.9 -4.49951,3.09961 -6.49951,3.09961 -2.5,0 -1.59971,-1.60068 1.80029,-3.20068 1.55,-0.75 2.7252,-1.12432 3.5127,-1.11182 z m -44.89014,2.33935 c 2.86221,-0.0492 5.77666,0.3421 8.57666,1.17334 l 4.00049,1.19971 -5.69971,0.7002 c -7.3,1 -10.70068,2.80058 -15.20068,8.10058 -4.9,5.6 -6.9999,13.09971 -6.3999,22.19971 1.1,17 12.7997,28.99951 28.1997,28.99951 11.3,0 18.8003,-5.49922 22.8003,-16.69922 l 1.8999,-5.20019 -0.49951,5.69971 c -1.2,14.09999 -11.6,23.79931 -25.5,23.79931 -8.9,0 -16.0001,-2.99971 -23.6001,-10.1997 -19.500003,-18.2 -18.899517,-48.19991 1.00049,-57.39991 3.15,-1.51875 6.74238,-2.30976 10.42236,-2.37305 z m 48.24024,1.39747 c 0.8125,0.025 1.33623,0.47548 1.63623,1.37549 0.4,1.3 -5.49981,4.50019 -6.79981,3.70019 -1.7,-1.1 -1.09971,-2.39941 1.80029,-3.89941 1.45,-0.8 2.55079,-1.20127 3.36329,-1.17627 z m -39.6753,4.15136 c 1.2875,-0.025 2.5627,0.0245 3.5127,0.12451 3.8,0.6 12,3.8003 12,4.8003 0,0.3 -1.40069,-0.2001 -3.20069,-1.1001 -4.9,-2.5 -13.70048,-1.4998 -19.00048,2.2002 -15.1,10.6 -11.09971,36.79941 6.30029,41.39941 14.6,4 27.80107,-9.69981 25.60107,-26.29981 -0.5,-3.3 -0.30048,-3.7998 0.49952,-2.2998 1.6,2.8 1.39931,14.19951 -0.20069,19.99951 -4.4,15.8 -23.69912,20.70029 -36.59912,9.30029 -8,-7 -11.30029,-17.10009 -9.30029,-28.10009 1.9,-11 7.90029,-17.90069 16.80029,-19.70069 1,-0.2 2.2999,-0.29873 3.5874,-0.32373 z m 43.70069,0.27979 c 0.61244,-0.0103 0.99609,0.34131 1.51172,1.04443 1,1.3 0.59912,1.89991 -2.40088,3.39991 -3.1,1.59999 -3.69952,1.6999 -4.99952,0.3999 -1.3,-1.2 -0.99912,-1.69991 2.40088,-3.3999 1.80625,-0.95626 2.7937,-1.43267 3.4878,-1.44434 z m -39.38819,4.25391 c 1.501,0.0157 3.12442,0.3913 5.39942,1.0913 l 3.7998,1.09864 -4.69922,1.60107 c -4.1,1.4 -5.0997,2.2999 -7.1997,6.3999 -3,6 -2.30059,10.39951 2.39941,15.49952 2.9,3.19999 3.8999,3.70019 7.8999,3.70019 3.6,0 5.1,-0.60039 7.5,-2.90039 2.5,-2.4 3.09961,-2.59971 3.09961,-1.19971 0,2.3 -3.4001,8.70069 -5.6001,10.70069 -12.6,11.1 -29.99882,2.20009 -30.29882,-15.39991 -0.2,-8.5 3.99941,-15.40127 11.39941,-18.80127 2.64375,-1.2375 4.37043,-1.81025 6.30029,-1.79003 z m 43.16162,1.5205 c 0.14565,7e-4 0.26026,0.0234 0.33838,0.0703 1.6,0.9 0.49932,2.29932 -3.20068,4.29932 -3.3,1.6 -4,1.70098 -4.5,0.50098 -0.3,-1 0.70068,-2.0999 3.20068,-3.3999 1.6875,-0.84375 3.37514,-1.47458 4.16162,-1.47071 z m -35.32617,4.33008 c 3.15076,0.0245 6.14287,1.7749 7.86475,5.04053 1.9,3.7 1.9,7.29951 0,10.99951 -2.9,5.5 -9.4002,6.7001 -14.2002,2.6001 -2.5,-2.1 -2.80078,-3.10059 -2.80078,-8.10059 0,-5 0.30078,-5.99912 2.80078,-8.09912 1.95,-1.66562 4.17967,-2.45717 6.33545,-2.44043 z m 36.55225,1.21436 c 0.6625,-0.025 0.81152,0.42568 0.81152,1.32568 0,1.7 -5.59902,4.90049 -6.99902,4.00049 -1.7,-1.1 -1.1002,-2.09981 2.2998,-3.79981 2.05,-1 3.2252,-1.50136 3.8877,-1.52636 z m 0.47168,5.9707 c 0.88813,0 1.34033,0.45185 1.34033,1.35498 0,1.2 -4.69951,4.5 -6.49951,4.5 -1.5,0 -0.20117,-3.90029 1.79883,-4.80029 1.45312,-0.70313 2.5767,-1.05469 3.36035,-1.05469 z m 0.99023,6.01758 c 0.425,-0.0125 0.3501,0.38672 0.3501,1.13672 0,0.7 -1.59951,2.1 -3.49951,3 -3.1,1.5 -3.50098,1.50107 -3.50098,0.10107 0,-0.8 1.50029,-2.10039 3.30029,-2.90039 2,-0.9 2.9251,-1.3249 3.3501,-1.3374 z m -0.3501,5.8374 c 1.8,0 -0.0996,2.59932 -3.0996,4.29932 -2.8,1.6 -3.20069,1.70029 -3.20069,0.30029 0,-0.8 1.20078,-2.2 2.80078,-3 1.5,-0.8 3.09951,-1.49961 3.49951,-1.59961 z m -0.53759,6.53027 c 0.11027,7e-4 0.19043,0.0234 0.2373,0.0703 0.7,0.8 -3.9001,4.39892 -5.6001,4.39892 -2.2,0 -1.6997,-0.9 1.8003,-3 1.51875,-0.84375 2.96701,-1.47311 3.5625,-1.46924 z m -1.86182,5.46973 c 0.8,0 -2.4001,3.2001 -4.1001,4.1001 -2.9,1.5 -2.10097,-0.49981 0.99903,-2.29981 1.5,-1 2.90107,-1.80029 3.10107,-1.80029 z" />
</svg>
