<?xml version="1.0" encoding="UTF-8" standalone="no"?>
<!-- Created with Inkscape (http://www.inkscape.org/) -->

<svg
   width="134.799mm"
   height="27.351688mm"
   viewBox="0 0 134.799 27.351688"
   version="1.1"
   id="svg1"
   xmlns="http://www.w3.org/2000/svg"
   xmlns:svg="http://www.w3.org/2000/svg">
  <defs
     id="defs1" />
  <path
     id="path1"
     style="display:inline;fill:#313133;fill-opacity:1;stroke:none;stroke-width:0.0352778"
     d="m 19.391849,4.99415e-6 c -3.06917,0 -4.69208,1.83440900585 -5.7857,6.49107600585 L 13.218059,8.219657 7.5383086,7.972645 C 4.4338586,7.831534 1.5059786,7.690631 1.0120886,7.655354 -0.25791127,7.54952 -0.36371127,8.713443 0.87100867,9.172055 1.3648986,9.3837206 4.2576786,9.6309086 7.2210086,9.7720196 c 3.5630604,0.141111 5.4327504,0.3524994 5.4327504,0.5994444 0,0.211666 -0.7057,3.457395 -1.55236,7.232117 -1.6933401,7.478889 -1.6932301,8.078473 0.10593,9.030973 0.88195,0.423333 2.75174,0.529167 11.35952,0.529167 h 10.26604 c 1.654233,0.924823 2.384184,-1.886792 0.45836,-1.446429 -2.395058,-0.402628 -5.50337,-0.246874 -10.97142,-0.282152 -7.3025,-0.03528 -10.01893,-0.140734 -10.44226,-0.493511 -0.59972,-0.423334 -0.49385,-1.093851 2.50476,-13.829129 0.21166,-0.881944 0.49375,-1.1286814 1.62264,-1.3756254 3.63361,-0.8113886 4.26899,-1.0583326 5.32732,-2.1166666 2.08139,-2.081389 2.25767,-4.86847 0.42323,-6.84402598 C 21.191079,0.21173702 20.591289,-1.2340711e-8 19.391839,-1.2340711e-8 Z M 19.423349,1.469166 c 0.37501,0.006 0.65771,0.278398 1.23868,0.859381 0.70556,0.705555 0.84664,1.093505 0.67025,2.010727 -0.38805,1.975556 -1.83475,2.998647 -5.08031,3.563091 -1.16417,0.211667 -1.19934,0.211769 -0.9524,-0.952398 0.635,-2.822222 1.41111,-4.304368 2.64584,-4.90409 0.74414,-0.380341 1.14705,-0.582006 1.47794,-0.576711 z m 34.30592,5.575886 c -0.9412,0.009 -1.93064,0.358979 -2.65824,0.998389 -1.55222,1.3758326 -1.44601,2.680973 0.56483,6.914307 1.83444,3.845277 1.86965,4.97441 0.28215,5.362465 -1.23472,0.3175 -2.0107,-0.246944 -2.15181,-1.5875 -0.14111,-1.27 -1.27024,-1.552257 -1.65829,-0.388091 -0.59973,1.869722 1.05819,3.880383 3.21014,3.880383 3.28083,0 4.51583,-3.245347 2.57555,-6.667292 -1.23472,-2.116666 -2.43427,-5.291666 -2.2226,-5.8208334 0.24694,-0.5997216 1.44635,-1.0940266 2.25774,-0.9529156 0.70555,0.141111 1.05833,0.7412806 1.05833,1.87017 0,0.740833 0.17622,0.987538 0.70538,0.987538 1.44639,0 1.16414,-3.421945 -0.38809,-4.233333 -0.46302,-0.251355 -1.01037,-0.36866 -1.57509,-0.363287 z m -7.028,0.380855 c -0.30427,-0.0088 -0.6042,0.12344 -0.71003,0.405663 -0.35278,1.058333 -2.64583,12.770865 -2.64583,13.546976 0,1.128889 1.30527,1.199307 1.5875,0.03514 1.02305,-4.445 2.64586,-13.158922 2.50475,-13.546977 -0.12347,-0.282222 -0.43211,-0.431984 -0.73639,-0.440802 z m -4.63899,0.365869 c -0.28663,0.02205 -0.58636,0.216182 -0.76275,0.56896 -0.17638,0.352778 -0.77655,2.257778 -1.341,4.233333 l -1.02267,3.633887 -0.35295,-3.951182 c -0.28223,-3.280833 -0.45851,-3.98642 -0.9524,-4.092254 -0.49389,-0.105833 -0.81149,0.599892 -1.69344,3.527947 -1.65805,5.432778 -1.62257,5.432538 -1.90479,0.987538 -0.14111,-2.2225 -0.35278,-4.16288 -0.52917,-4.339269 -0.14111,-0.141111 -0.52947,-0.176251 -0.84697,-0.03514 -0.52917,0.176389 -0.56448,0.670034 -0.38809,4.162534 0.56444,9.560278 0.59989,9.913193 1.41128,10.019027 0.635,0.105833 0.88198,-0.387883 1.97559,-3.880383 l 1.26969,-3.986318 0.0357,3.033924 c 0.0353,4.056944 0.31722,5.256008 1.12861,5.256008 0.49389,0 0.81156,-0.599479 1.41128,-2.575035 2.78695,-9.278055 3.42167,-11.677223 3.24528,-12.100556 -0.12347,-0.335139 -0.39653,-0.485069 -0.68316,-0.463021 z m -14.1335,1.4159366 c -1.34056,0.03528 -2.9631,0.141041 -3.63337,0.282152 l -1.19941,0.211356 -1.51722,6.1737844 c -0.81139,3.386667 -1.44605,6.561494 -1.41077,7.055383 0.0706,0.846666 0.10556,0.846874 3.24528,0.741041 1.72861,-0.03528 3.2809,-0.176322 3.42201,-0.282155 0.17639,-0.07056 0.28216,-0.458922 0.28216,-0.846977 0,-0.599722 -0.24657,-0.670243 -2.61018,-0.670243 h -2.61069 l 0.35294,-1.410765 0.35244,-1.376144 2.18746,-0.105935 c 1.86972,-0.105834 2.15181,-0.176322 2.15181,-0.811322 0,-0.599723 -0.28229,-0.705485 -1.83452,-0.811319 -2.15194,-0.141111 -2.11649,-0.035 -1.23454,-3.774447 l 0.59944,-2.469617 2.46962,-0.176216 c 2.68111,-0.211667 3.35122,-0.458819 3.35122,-1.2702084 0,-0.388056 -0.52924,-0.4936446 -2.36368,-0.458368 z" />
  <path
     d="m 95.966394,3.479128 c -0.43273,-0.08417 -1.08536,-0.09044 -1.19052,0.517889 -1.02306,4.727217 -3.99204,18.735158 -3.99204,19.193768 0,0.811387 0.0705,0.811007 4.51549,1.022677 9.983616,0.49389 13.863936,0.81149 14.216716,1.16427 0.28222,0.28222 2.39909,-2.152087 -8.78397,-2.610697 -4.303896,-0.21167 -7.902086,-0.42296 -7.972646,-0.49351 -0.10583,-0.0706 0.63486,-3.88069 1.62264,-8.431526 0.98778,-4.5508354 1.89731,-8.681707 1.93258,-9.74004 M 133.50527,1.530094 c -1.72861,0.141111 -9.73711,0.952256 -9.80767,0.987534 -0.0705,0 -0.10542,0.388126 -0.10542,0.776182 0,0.705555 0.14115,0.741073 2.50476,0.599962 2.32833,-0.141111 2.46927,-0.106109 2.29288,0.599447 -0.9525,4.198055 -2.71618,16.157606 -2.43396,16.439826 0.98778,0.98778 1.37556,-0.14125 2.71611,-7.90236 0.70556,-4.30389 1.41139,-8.184413 1.51722,-8.607747 0.14111,-0.635 0.49386,-0.776386 2.25775,-0.988053 2.2225,-0.246944 2.75128,-0.599376 2.08101,-1.410765 -0.24695,-0.282222 -0.70518,-0.494026 -1.02268,-0.494026 z m -15.27556,1.058333 c -0.0705,0.03528 -0.49378,0.141316 -0.95239,0.211871 -2.25778,0.423334 -3.24538,1.833997 -3.88038,5.538163 -0.24695,1.3758326 -0.6707,3.351736 -0.95292,4.410069 -0.28222,1.058333 -0.49351,2.89257 -0.49351,4.021458 0,1.799167 0.14073,2.187497 1.02268,3.104727 1.19944,1.16416 2.43424,1.30517 3.95118,0.42322 1.51694,-0.88194 2.22267,-2.751663 3.52795,-8.995829 1.30528,-6.350001 1.16427,-7.373367 -0.9524,-8.255311 -0.67027,-0.282223 -1.23493,-0.458368 -1.27021,-0.458368 z m -11.59308,1.031977 c -0.35719,0.0088 -0.68368,0.11448 -0.68368,0.308508 0,0.141111 -0.63466,3.668924 -1.41077,7.796425 -0.77611,4.1275 -1.41128,7.866978 -1.41128,8.325588 0,0.9525 0.59996,1.44643 1.12913,0.91726 0.45861,-0.45861 3.5275,-16.615802 3.24528,-17.074413 -0.12348,-0.194028 -0.5115,-0.282187 -0.86868,-0.273368 z m 11.47836,0.748792 c 0.36332,-0.01457 0.66622,0.124333 1.10278,0.441833 0.67028,0.493889 0.635,0.599483 -0.52917,6.279206 -1.23472,6.103055 -1.83458,7.58472 -3.13986,7.9375 -2.08138,0.52917 -2.29312,-1.693059 -0.77618,-9.0661154 0.88195,-4.2686106 1.12872,-4.8330556 2.29289,-5.2916666 0.44758,-0.185208 0.76697,-0.289422 1.04954,-0.300757 z M 78.665706,4.753668 c -0.72319,-0.0044 -2.06371,0.110211 -4.63899,0.339516 -1.905,0.141111 -3.63371,0.423055 -3.8101,0.599444 -0.35278,0.352778 -4.480351,17.498127 -4.480351,18.697564 v 0.84646 l 4.515491,-0.24701 c 2.46944,-0.14111 4.62176,-0.38792 4.79815,-0.56431 0.17639,-0.17639 0.21139,-0.564617 0.0703,-0.882117 -0.17639,-0.49389 -0.67034,-0.52895 -3.95118,-0.31729 l -3.7393,0.24701 0.24701,-0.84697 c 0.17639,-0.45861 0.45858,-1.65768 0.67024,-2.61018 l 0.38809,-1.76423 2.99879,-0.10542 c 2.99861,-0.10584 3.84503,-0.494202 3.1042,-1.376147 -0.24694,-0.3175 -1.30545,-0.458367 -2.99878,-0.458367 -2.32834,0 -2.61035,-0.07066 -2.43396,-0.635103 0.10583,-0.3175 0.59958,-2.363921 1.09347,-4.551143 1.05833,-4.515557 0.56444,-4.127296 5.82083,-4.55063 2.96334,-0.211666 3.63372,-0.529202 3.28094,-1.446424 -0.10583,-0.246944 -0.21163,-0.370244 -0.93483,-0.374653 z m 5.59139,0.268717 c -0.2734,0 -0.54677,0.106144 -0.67024,0.317811 -0.3175,0.493889 -4.09226,17.286079 -4.09226,18.132739 0,0.670277 0.14153,0.705317 3.59875,0.45837 3.73944,-0.24694 4.40952,-0.45864 4.02146,-1.44642 -0.17639,-0.49389 -0.59989,-0.52882 -2.99878,-0.35243 l -2.75177,0.24701 1.87017,-8.361245 c 1.05833,-4.5861124 1.79875,-8.501635 1.69292,-8.678024 -0.12348,-0.211667 -0.39684,-0.317811 -0.67025,-0.317811 z m 6.526738,18.1684 c 0,0.811387 0.0705,0.811007 4.51549,1.022677 9.983616,0.49389 13.863936,0.81149 14.216716,1.16427 0.28222,0.28222 2.39909,-2.152087 -8.78397,-2.610697 -4.303896,-0.21167 -7.902086,-0.42296 -7.972646,-0.49351 M 133.50527,1.530094 c -1.72861,0.141111 -9.73711,0.952256 -9.80767,0.987534 -0.0705,0 -0.10542,0.388126 -0.10542,0.776182 0,0.705555 0.14115,0.741073 2.50476,0.599962 2.32833,-0.141111 2.46927,-0.106109 2.29288,0.599447 -0.9525,4.198055 -2.71618,16.157606 -2.43396,16.439826 0.98778,0.98778 1.37556,-0.14125 2.71611,-7.90236 0.70556,-4.30389 1.41139,-8.184413 1.51722,-8.607747 0.14111,-0.635 0.49386,-0.776386 2.25775,-0.988053 2.2225,-0.246944 2.75128,-0.599376 2.08101,-1.410765 -0.24695,-0.282222 -0.70518,-0.494026 -1.02268,-0.494026 z m -15.27556,1.058333 c -0.0705,0.03528 -0.49378,0.141316 -0.95239,0.211871 -2.25778,0.423334 -3.24538,1.833997 -3.88038,5.538163 -0.24695,1.3758326 -0.6707,3.351736 -0.95292,4.410069 -0.28222,1.058333 -0.49351,2.89257 -0.49351,4.021458 0,1.799167 0.14073,2.187497 1.02268,3.104727 1.19944,1.16416 2.43424,1.30517 3.95118,0.42322 1.51694,-0.88194 2.22267,-2.751663 3.52795,-8.995829 1.30528,-6.350001 1.16427,-7.373367 -0.9524,-8.255311 -0.67027,-0.282223 -1.23493,-0.458368 -1.27021,-0.458368 z m -11.59308,1.031977 c -0.35719,0.0088 -0.68368,0.11448 -0.68368,0.308508 0,0.141111 -0.63466,3.668924 -1.41077,7.796425 -0.77611,4.1275 -1.41128,7.866978 -1.41128,8.325588 0,0.9525 0.59996,1.44643 1.12913,0.91726 0.45861,-0.45861 3.5275,-16.615802 3.24528,-17.074413 -0.12348,-0.194028 -0.5115,-0.282187 -0.86868,-0.273368 z m 11.47836,0.748792 c 0.36332,-0.01457 0.66622,0.124333 1.10278,0.441833 0.67028,0.493889 0.635,0.599483 -0.52917,6.279206 -1.23472,6.103055 -1.83458,7.58472 -3.13986,7.9375 -2.08138,0.52917 -2.29312,-1.693059 -0.77618,-9.0661154 0.88195,-4.2686106 1.12872,-4.8330556 2.29289,-5.2916666 0.44758,-0.185208 0.76697,-0.289422 1.04954,-0.300757 z M 78.665703,4.753668 c -0.72319,-0.0044 -2.06371,0.110211 -4.63899,0.339516 -1.905,0.141111 -3.63371,0.423055 -3.8101,0.599444 -0.35278,0.352778 -4.480351,17.498127 -4.480351,18.697564 v 0.84646 l 4.515491,-0.24701 c 2.46944,-0.14111 4.62176,-0.38792 4.79815,-0.56431 0.17639,-0.17639 0.21139,-0.564617 0.0703,-0.882117 -0.17639,-0.49389 -0.67034,-0.52895 -3.95118,-0.31729 l -3.7393,0.24701 0.24701,-0.84697 c 0.17639,-0.45861 0.45858,-1.65768 0.67024,-2.61018 l 0.38809,-1.76423 2.99879,-0.10542 c 2.99861,-0.10584 3.84503,-0.494202 3.1042,-1.376147 -0.24694,-0.3175 -1.30545,-0.458367 -2.99878,-0.458367 -2.32834,0 -2.61035,-0.07066 -2.43396,-0.635103 0.10583,-0.3175 0.59958,-2.363921 1.09347,-4.551143 1.05833,-4.515557 0.56444,-4.127296 5.82083,-4.55063 2.96334,-0.211666 3.63372,-0.529202 3.28094,-1.446424 -0.10583,-0.246944 -0.21163,-0.370244 -0.93483,-0.374653 z m 5.59139,0.268717 c -0.2734,0 -0.54677,0.106144 -0.67024,0.317811 -0.3175,0.493889 -4.09226,17.286079 -4.09226,18.132739 0,0.670277 0.14153,0.705317 3.59875,0.45837 3.73944,-0.24694 4.40952,-0.45864 4.02146,-1.44642 -0.17639,-0.49389 -0.59989,-0.52882 -2.99878,-0.35243 l -2.75177,0.24701 1.87017,-8.361245 c 1.05833,-4.5861124 1.79875,-8.501635 1.69292,-8.678024 -0.12348,-0.211667 -0.39684,-0.317811 -0.67025,-0.317811 z"
     style="display:inline;fill:#313133;fill-opacity:1;stroke:none;stroke-width:0.0352778"
     id="path1-4" />
</svg>
